<svg width="40" height="24" viewBox="0 0 40 24" fill="none" xmlns="http://www.w3.org/2000/svg">
<path d="M11.2363 8.65953C11.2363 9.15029 11.2895 9.54812 11.3823 9.83989C11.5 10.1681 11.6419 10.4872 11.8065 10.7947C11.8729 10.9007 11.8993 11.0068 11.8993 11.0997C11.8993 11.2322 11.8198 11.3649 11.6474 11.4975L10.812 12.0545C10.6927 12.1341 10.5733 12.1738 10.4671 12.1738C10.3346 12.1738 10.2019 12.1075 10.0692 11.9881C9.89041 11.7963 9.73057 11.5875 9.59193 11.3649C9.45927 11.1396 9.32661 10.8874 9.1808 10.5825C8.14631 11.8025 6.84669 12.4125 5.28196 12.4126C4.16809 12.4126 3.2795 12.0942 2.62964 11.4578C1.97994 10.8211 1.64844 9.97239 1.64844 8.91156C1.64844 7.7844 2.04627 6.86937 2.85523 6.17977C3.66404 5.49017 4.73832 5.14538 6.10422 5.14538C6.55508 5.14538 7.01925 5.18511 7.50985 5.25144C8.00061 5.31778 8.50451 5.42384 9.035 5.54321V4.57515C9.035 3.56719 8.82271 2.86445 8.41158 2.45332C7.98731 2.04219 7.27112 1.8432 6.25002 1.8432C5.78586 1.8432 5.30855 1.89639 4.8178 2.01575C4.32704 2.13512 3.84973 2.28092 3.38557 2.46662C3.17343 2.55939 3.01433 2.61242 2.92141 2.63902C2.82848 2.66561 2.7623 2.67876 2.70927 2.67876C2.52357 2.67876 2.4308 2.54609 2.4308 2.26763V1.61777C2.4308 1.40563 2.4574 1.24653 2.52357 1.15376C2.58991 1.06083 2.70927 0.968063 2.89497 0.875293C3.35908 0.636458 3.91601 0.437516 4.56577 0.278467C5.21578 0.106068 5.90538 0.0265951 6.63471 0.0265951C8.2129 0.0265951 9.36666 0.384534 10.1093 1.10073C10.8386 1.81676 11.21 2.90419 11.21 4.36301V8.65953H11.2363ZM5.85219 10.6753C6.28991 10.6753 6.74078 10.5958 7.21808 10.4366C7.69555 10.2775 8.11997 9.98569 8.47791 9.58786C8.6902 9.33599 8.8493 9.05752 8.92878 8.73916C9.00841 8.42096 9.06144 8.03627 9.06144 7.5854V7.02847C8.65926 6.93065 8.25193 6.85539 7.84135 6.80303C7.4279 6.75057 7.01158 6.72398 6.59482 6.72341C5.70623 6.72341 5.05653 6.8958 4.61896 7.2539C4.18139 7.612 3.9691 8.1159 3.9691 8.7789C3.9691 9.40216 4.1282 9.86632 4.4597 10.1847C4.77806 10.5162 5.24222 10.6753 5.85219 10.6753ZM16.501 12.1075C16.2623 12.1075 16.1032 12.0678 15.9971 11.9748C15.8911 11.8954 15.7981 11.7097 15.7187 11.4578L12.6023 1.20679C12.5226 0.941468 12.4828 0.769069 12.4828 0.676299C12.4828 0.464163 12.5889 0.344642 12.8012 0.344642H14.1007C14.3526 0.344642 14.5252 0.384534 14.6179 0.477304C14.724 0.556933 14.8036 0.74263 14.8831 0.994501L17.111 9.77355L19.1798 0.994501C19.2461 0.729332 19.3258 0.556933 19.4317 0.477304C19.5379 0.397832 19.7236 0.344798 19.9623 0.344798H21.0231C21.275 0.344798 21.4476 0.384534 21.5535 0.477304C21.6597 0.556933 21.7525 0.74263 21.8055 0.994501L23.9009 9.87962L26.195 0.994501C26.2744 0.729332 26.3674 0.556933 26.4601 0.477304C26.5662 0.397832 26.7386 0.344798 26.9773 0.344798H28.2106C28.4229 0.344798 28.5422 0.450866 28.5422 0.676299C28.5422 0.74263 28.5289 0.808961 28.5156 0.888434C28.5023 0.967906 28.4759 1.07413 28.4229 1.22009L25.2267 11.4709C25.1473 11.7363 25.0544 11.9087 24.9483 11.9881C24.8422 12.0678 24.6698 12.1208 24.4445 12.1208H23.3041C23.052 12.1208 22.8796 12.0811 22.7734 11.9881C22.6674 11.8954 22.5746 11.723 22.5216 11.4578L20.4659 2.90419L18.4237 11.4444C18.3575 11.7097 18.2779 11.8821 18.1718 11.9748C18.0658 12.0678 17.8801 12.1075 17.6415 12.1075H16.501ZM33.5418 12.4656C32.8522 12.4656 32.1626 12.386 31.4996 12.2269C30.8364 12.0678 30.3194 11.8952 29.9746 11.6965C29.7623 11.577 29.6164 11.4445 29.5635 11.3251C29.5119 11.2081 29.4848 11.0817 29.4838 10.9538V10.2775C29.4838 9.99899 29.5899 9.86633 29.7889 9.86633C29.8701 9.86663 29.9507 9.8801 30.0276 9.90622C30.1071 9.93281 30.2265 9.98569 30.3591 10.0387C30.8275 10.2449 31.3165 10.4005 31.8178 10.5029C32.3373 10.6082 32.8659 10.6615 33.396 10.662C34.2314 10.662 34.8812 10.5162 35.3321 10.2244C35.783 9.93266 36.0217 9.50839 36.0217 8.96459C36.0217 8.59336 35.9023 8.28829 35.6636 8.03627C35.4249 7.78424 34.974 7.55896 34.3243 7.34667L32.4013 6.75C31.4333 6.44494 30.7172 5.99407 30.2795 5.39725C29.8419 4.81372 29.6165 4.16402 29.6165 3.47442C29.6165 2.91749 29.7359 2.42678 29.9746 2.0023C30.2132 1.57803 30.5315 1.20679 30.9294 0.915029C31.3272 0.609967 31.7781 0.384534 32.3086 0.225433C32.8389 0.0663314 33.3958 0 33.9794 0C34.2711 0 34.5762 0.0132976 34.868 0.0530338C35.173 0.0927701 35.4515 0.145804 35.7299 0.198838C35.9951 0.265169 36.2471 0.331501 36.4859 0.411129C36.7245 0.490602 36.9101 0.570127 37.0428 0.649703C37.2285 0.755928 37.361 0.861995 37.4406 0.98136C37.5202 1.08743 37.56 1.23328 37.56 1.41893V2.04219C37.56 2.32066 37.4539 2.46662 37.2549 2.46662C37.1489 2.46662 36.9765 2.41343 36.7512 2.30736C35.9951 1.96256 35.1463 1.79017 34.2049 1.79017C33.449 1.79017 32.8522 1.90953 32.4411 2.16156C32.0301 2.41343 31.8178 2.79812 31.8178 3.34176C31.8178 3.71315 31.9505 4.03135 32.2156 4.28338C32.4808 4.53541 32.9716 4.78728 33.6745 5.01271L35.5575 5.60954C36.5123 5.9146 37.2019 6.33887 37.613 6.88251C38.0242 7.42614 38.2232 8.04956 38.2232 8.73916C38.2232 9.30939 38.1036 9.82659 37.8782 10.2775C37.6396 10.7283 37.3213 11.1262 36.9101 11.4445C36.499 11.776 36.0084 12.0147 35.4382 12.1871C34.8414 12.3728 34.2181 12.4656 33.5418 12.4656Z" fill="#252F3E"/>
<path d="M36.0484 18.9109C31.6855 22.1335 25.3465 23.8442 19.8962 23.8442C12.2576 23.8442 5.37509 21.0195 0.176681 16.3249C-0.234448 15.9537 0.136788 15.4498 0.62739 15.7414C6.25023 19.0039 13.1859 20.9797 20.3604 20.9797C25.2007 20.9797 30.5184 19.9719 35.4119 17.9031C36.1413 17.5715 36.7645 18.3806 36.0484 18.9109ZM37.8653 16.8421C37.3083 16.1261 34.1786 16.4973 32.7596 16.6697C32.3352 16.7229 32.2689 16.3515 32.6536 16.0731C35.1466 14.3225 39.2445 14.8265 39.7218 15.4099C40.1992 16.0067 39.5891 20.1044 37.2551 22.0672C36.8972 22.3722 36.5524 22.2131 36.7115 21.8153C37.2418 20.5023 38.4222 17.545 37.8653 16.8421Z" fill="#FF9900"/>
</svg>
