<svg width="53" height="17" viewBox="0 0 53 17" fill="none" xmlns="http://www.w3.org/2000/svg">
<path d="M37.3968 13.8739C36.2393 13.7974 35.5665 13.1178 35.3884 11.8466C35.3409 11.5083 35.3409 11.4996 35.3358 9.30422L35.3312 7.1793H36.3555L36.3593 9.23464C36.3631 11.0869 36.3652 11.3044 36.3826 11.4344C36.4521 11.9634 36.5908 12.3192 36.8274 12.5743C37.0165 12.7787 37.2378 12.8981 37.5443 12.9616C37.6885 12.9918 38.1001 12.9918 38.232 12.9616C38.5278 12.899 38.799 12.7474 39.0113 12.5257C39.2618 12.2676 39.4471 11.9013 39.537 11.4873L39.5667 11.3477L39.5701 9.27533L39.5734 7.20205H40.6194V13.7195H39.5845V13.2022C39.5845 12.8513 39.5807 12.6868 39.5726 12.6894C39.5492 12.7177 39.5294 12.7491 39.5137 12.7826C39.325 13.1285 39.048 13.4144 38.7128 13.6092C38.3227 13.8302 37.9314 13.9089 37.3968 13.8739ZM49.1409 13.8687C48.7193 13.8326 48.3118 13.6954 47.9508 13.4678C47.2097 12.9953 46.7713 12.2164 46.6432 11.1451C46.5987 10.7741 46.5932 10.2761 46.6305 9.96103C46.7132 9.25652 46.9816 8.56513 47.364 8.07197C47.4615 7.94507 47.6841 7.71622 47.8066 7.61513C48.137 7.34268 48.5238 7.15238 48.9369 7.05896C49.1769 7.00514 49.5992 6.97976 49.854 7.00382C50.4942 7.06509 51.0801 7.37577 51.4787 7.86456C51.884 8.36122 52.1061 9.05523 52.135 9.90984C52.1395 10.0838 52.1403 10.2579 52.1371 10.4319L52.1316 10.7102L49.8904 10.7128L47.6493 10.7159V10.8191C47.6493 11.1329 47.7231 11.4904 47.8511 11.795C47.9614 12.0571 48.1517 12.3433 48.3069 12.482C48.6258 12.7662 49.0234 12.9395 49.4432 12.9773C49.6017 12.9926 50.0053 12.9764 50.1855 12.948C50.7007 12.8662 51.1904 12.6579 51.5851 12.3529C51.6317 12.3166 51.6762 12.2829 51.6843 12.2781C51.6957 12.2706 51.6987 12.3643 51.6983 12.7594V13.2495L51.5919 13.3173C51.1344 13.6054 50.6222 13.7884 50.0901 13.8538C49.9282 13.8744 49.3346 13.8836 49.1409 13.8687ZM51.0911 9.7313C51.0911 9.20576 50.8762 8.62158 50.5722 8.32096C50.3552 8.10648 50.0782 7.96807 49.7806 7.92538C49.6331 7.90175 49.3223 7.91094 49.1667 7.94289C48.849 8.0057 48.5569 8.16581 48.3285 8.40235C48.0775 8.65919 47.8876 8.97251 47.7735 9.31778C47.7311 9.44468 47.682 9.65254 47.6663 9.76806L47.6591 9.8232H51.0911V9.7313ZM20.69 13.7046L22.3813 9.12437L24.0678 4.55859H25.1515L25.1965 4.67674C25.3338 5.04038 28.5726 13.7094 28.5726 13.7138C28.5726 13.7168 28.3131 13.719 27.996 13.719H27.4194L26.953 12.4378L26.4858 11.1565H22.7268L22.7107 11.2003C22.7018 11.2239 22.5021 11.8006 22.2672 12.4811L21.8407 13.719H21.2628C20.8058 13.719 20.6862 13.7164 20.69 13.7046ZM26.1428 10.179C26.1428 10.1768 25.829 9.29897 25.4449 8.22732C24.7267 6.22405 24.6864 6.10327 24.6296 5.78165C24.6029 5.63112 24.5893 5.62674 24.5736 5.76414C24.5517 5.9133 24.5191 6.06059 24.4761 6.20479C24.457 6.26562 24.1336 7.18061 23.7571 8.23869C23.5268 8.88265 23.2986 9.52736 23.0723 10.1728C23.0723 10.1781 23.7634 10.1825 24.6076 10.1825C25.4517 10.1825 26.1428 10.1807 26.1428 10.179ZM28.9211 13.5527V13.3856L30.7938 10.7316L32.6665 8.07766L30.9706 8.07197L29.2755 8.06629L29.2726 7.62257L29.2696 7.1793H34.1741V7.47861L32.3014 10.147C31.2712 11.6147 30.4283 12.818 30.4283 12.8207C30.4283 12.8233 31.261 12.8264 32.2785 12.8264H34.1292V13.719H28.9211V13.5527ZM42.6625 13.7116C42.6583 13.7072 42.6553 12.2356 42.6553 10.4415V7.17886H43.6788V7.85143C43.6788 8.22163 43.683 8.524 43.6881 8.524C43.6936 8.524 43.7186 8.46361 43.7437 8.38966C43.8622 8.04465 44.0582 7.73351 44.3156 7.48167C44.5369 7.26023 44.8195 7.11539 45.1241 7.06728C45.2119 7.05283 45.2861 7.04977 45.4616 7.05459C45.6821 7.06071 45.797 7.07734 45.9309 7.12241L45.9733 7.13641V8.23213L45.8525 8.16999C45.6431 8.06047 45.4087 8.01205 45.1746 8.02997C45.0096 8.03872 44.9015 8.0606 44.7697 8.11136C44.5021 8.2132 44.2752 8.40432 44.1248 8.6544C43.8953 9.0407 43.7493 9.47354 43.6966 9.9234C43.6881 10.0009 43.6835 10.6332 43.6813 11.879L43.6784 13.7199H43.1743C42.897 13.7199 42.6668 13.716 42.6625 13.7116Z" fill="#0089D6"/>
<path d="M5.82722 0.000262429H10.9996L5.63029 16.4198C5.57515 16.5886 5.47009 16.7352 5.32991 16.8391C5.18973 16.943 5.0215 16.9989 4.84893 16.9989H0.82364C0.692906 16.9988 0.564051 16.9667 0.447727 16.9051C0.331402 16.8436 0.230947 16.7543 0.154666 16.6447C0.0783531 16.5351 0.028444 16.4084 0.00907606 16.2749C-0.0102919 16.1415 0.00143933 16.0052 0.0432971 15.8774L5.04586 0.579181C5.10106 0.410434 5.20613 0.263796 5.34629 0.159901C5.48645 0.0560059 5.65465 8.261e-05 5.82722 0V0.000262429Z" fill="url(#paint0_linear_446_2243)"/>
<path d="M13.3439 11.0137H5.14206C5.06578 11.0135 4.99122 11.037 4.92811 11.0812C4.86499 11.1254 4.81625 11.1883 4.78823 11.2615C4.76022 11.3347 4.75424 11.4149 4.77107 11.4917C4.7879 11.5685 4.82676 11.6383 4.88259 11.6919L10.153 16.7692C10.3067 16.9168 10.5087 16.9989 10.7186 16.999H15.3628L13.3439 11.0137Z" fill="#0078D4"/>
<path d="M5.82788 7.49641e-06C5.6534 -0.000751383 5.48327 0.0561254 5.34236 0.16232C5.20145 0.268514 5.09716 0.418454 5.04474 0.590211L0.0501884 15.8632C0.00563105 15.9915 -0.00833988 16.129 0.0094567 16.2641C0.0272533 16.3991 0.0762942 16.5278 0.152433 16.6391C0.228573 16.7505 0.329572 16.8413 0.446892 16.9039C0.564212 16.9664 0.694405 16.9989 0.826463 16.9986H4.95575C5.10954 16.9703 5.25329 16.9003 5.3723 16.7958C5.49131 16.6914 5.58131 16.5562 5.63311 16.4041L6.62907 13.3745L10.1869 16.7993C10.336 16.9266 10.5229 16.997 10.7164 16.9986H15.3435L13.3141 11.0131L7.39823 11.0146L11.019 7.49641e-06H5.82788Z" fill="url(#paint1_linear_446_2243)"/>
<path d="M12.434 0.578132C12.3788 0.409643 12.2739 0.263243 12.1339 0.159535C11.9939 0.0558265 11.8259 3.10292e-05 11.6536 0H5.88916C6.06145 5.84693e-05 6.22939 0.0558667 6.36934 0.159573C6.5093 0.263279 6.61423 0.409664 6.66938 0.578132L11.6721 15.877C11.7139 16.0048 11.7257 16.1412 11.7064 16.2746C11.6871 16.4081 11.6372 16.535 11.561 16.6446C11.4847 16.7543 11.3842 16.8436 11.2679 16.9052C11.1515 16.9668 11.0226 16.9989 10.8918 16.9989H16.6566C16.7873 16.9988 16.9161 16.9666 17.0324 16.9049C17.1487 16.8433 17.2491 16.754 17.3253 16.6443C17.4015 16.5347 17.4514 16.408 17.4707 16.2745C17.4901 16.1411 17.4784 16.0048 17.4367 15.877L12.434 0.578132Z" fill="url(#paint2_linear_446_2243)"/>
<defs>
<linearGradient id="paint0_linear_446_2243" x1="7.71247" y1="1.25992" x2="2.02853" y2="17.5291" gradientUnits="userSpaceOnUse">
<stop stop-color="#114A8B"/>
<stop offset="1" stop-color="#0669BC"/>
</linearGradient>
<linearGradient id="paint1_linear_446_2243" x1="9.39104" y1="8.89242" x2="8.14071" y2="9.3021" gradientUnits="userSpaceOnUse">
<stop stop-opacity="0.3"/>
<stop offset="0.071" stop-opacity="0.2"/>
<stop offset="0.321" stop-opacity="0.1"/>
<stop offset="0.623" stop-opacity="0.05"/>
<stop offset="1" stop-opacity="0"/>
</linearGradient>
<linearGradient id="paint2_linear_446_2243" x1="8.70732" y1="0.781908" x2="14.9382" y2="16.8657" gradientUnits="userSpaceOnUse">
<stop stop-color="#3CCBF4"/>
<stop offset="1" stop-color="#2892DF"/>
</linearGradient>
</defs>
</svg>
