<svg width="25" height="26" viewBox="0 0 25 26" fill="none" xmlns="http://www.w3.org/2000/svg">
<path fill-rule="evenodd" clip-rule="evenodd" d="M23.3493 2.69107C21.3138 1.41339 17.2241 0.5 12.5 0.5C7.77588 0.5 3.68624 1.41339 1.65071 2.69107C1.17889 2.93778 0.782592 3.27912 0.495286 3.68627C0.207981 4.09342 0.0381034 4.55443 0 5.03036V20.9688C0.0381034 21.4447 0.207981 21.9057 0.495286 22.3128C0.782592 22.72 1.17889 23.0613 1.65071 23.308C3.68624 24.5866 7.77588 25.5 12.5 25.5C17.2241 25.5 21.3138 24.5866 23.3493 23.3089C23.8211 23.0622 24.2174 22.7209 24.5047 22.3137C24.792 21.9066 24.9619 21.4456 25 20.9696V5.03125C24.9621 4.55517 24.7923 4.09398 24.5049 3.68666C24.2176 3.27934 23.8212 2.93786 23.3493 2.69107ZM23.3018 20.9688C23.2813 21.2394 23.1457 21.4938 22.9211 21.683C22.5171 22.046 22.0403 22.3424 21.5139 22.558C18.6714 23.6176 15.5932 24.1201 12.5 24.0295C9.40603 24.1188 6.32751 23.6148 3.48506 22.5536C2.95869 22.338 2.48189 22.0415 2.07783 21.6786C1.8533 21.4894 1.71768 21.2349 1.69714 20.9643V18.0179C3.74814 19.2795 7.81302 20.1795 12.499 20.1795C17.1849 20.1795 21.2498 19.2795 23.3008 18.0179L23.3018 20.9688ZM23.3018 15.6554C23.2813 15.926 23.1457 16.1804 22.9211 16.3696C22.5175 16.733 22.0406 17.0295 21.5139 17.2446C18.6712 18.3036 15.5931 18.8055 12.5 18.7143C9.40626 18.8045 6.32776 18.3014 3.48506 17.2411C2.95835 17.026 2.48145 16.7294 2.07783 16.3661C1.8533 16.1769 1.71768 15.9224 1.69714 15.6518V12.7054C3.74917 13.975 7.81302 14.875 12.5 14.875C17.187 14.875 21.2508 13.9768 23.3018 12.7134V15.6554ZM23.3018 10.3438C23.2813 10.6144 23.1457 10.8688 22.9211 11.058C22.5175 11.4214 22.0406 11.718 21.5139 11.933C18.6712 12.992 15.5931 13.4939 12.5 13.4027C9.40618 13.4926 6.32767 12.9892 3.48506 11.9286C2.95833 11.7135 2.48142 11.417 2.07783 11.0536C1.8533 10.8644 1.71768 10.6099 1.69714 10.3393V7.39286C3.74814 8.65625 7.81302 9.55446 12.499 9.55446C17.1849 9.55446 21.2498 8.65625 23.3008 7.39286L23.3018 10.3438ZM22.9201 5.74286C22.5161 6.10582 22.0393 6.40229 21.5129 6.61786C18.6704 7.6766 15.5928 8.17904 12.5 8.08929C9.40648 8.17931 6.32818 7.67686 3.48506 6.61786C2.9594 6.4021 2.48331 6.10564 2.07989 5.74286C1.85593 5.55331 1.72041 5.29905 1.6992 5.02857C1.71974 4.75794 1.85536 4.50348 2.07989 4.31429C2.484 3.95406 2.96005 3.66004 3.48506 3.44643C6.32751 2.38516 9.40603 1.88115 12.5 1.97054C15.594 1.88115 18.6725 2.38516 21.5149 3.44643C22.0413 3.662 22.5181 3.95847 22.9222 4.32143C23.1467 4.51063 23.2823 4.76509 23.3029 5.03571C23.2791 5.30392 23.143 5.55539 22.9201 5.74286Z" fill="currentColor"/>
</svg>
